<svg width="158" height="28" viewBox="0 0 158 28" fill="none" xmlns="http://www.w3.org/2000/svg">
<path d="M20.84 0.499998V25H18.04V1.445L10.235 22.165H9.675L0.785 1.305V25H0.085L0.05 0.499998H3.27L10.935 18.455L17.655 0.499998H20.84ZM39.0854 18V0.499998H39.7854V18C39.7854 27.345 22.9504 27.345 22.9504 18V0.499998H25.7504V18C25.7504 26.715 39.0854 25.98 39.0854 18ZM55.8859 12.435V0.499998H58.7209V25H55.8859V13.135H44.6859V25H41.8859V0.499998H44.6859V12.435H55.8859ZM77.8665 25H75.0665L72.6865 16.635H63.4815L60.7165 25.035H60.0165L68.0665 0.499998H70.8665L77.8665 25ZM68.4165 1.725L63.7265 15.935H72.4765L68.4165 1.725ZM100 0.499998V25H97.2002V1.445L89.3952 22.165H88.8352L79.9452 1.305V25H79.2452L79.2102 0.499998H82.4302L90.0952 18.455L96.8152 0.499998H100ZM122.901 0.499998V25H120.101V1.445L112.296 22.165H111.736L102.846 1.305V25H102.146L102.111 0.499998H105.331L112.996 18.455L119.716 0.499998H122.901ZM139.046 0.499998V1.2H127.811V12.435H137.296V13.135H127.811V24.3H139.046V25H125.011V0.499998H139.046ZM141.144 0.499998H143.944C154.094 0.499998 157.979 5.295 157.979 12.75C157.979 20.205 154.094 25 143.944 25H141.144V0.499998ZM143.944 1.2V24.3C154.304 24.3 155.179 18.35 155.179 12.75C155.179 7.15 154.304 1.2 143.944 1.2Z" fill="white"/>
</svg>
